# xmcd
#
# Track frame offsets: 
#        150
#        21878
#        39147
#        56403
#        75524
#        92181
#        107236
#        118208
#        129885
#        143909
#        162411
#        173875
#        196671
#        219137
#        236909
#        254361
#        277204
#        294306
#        320181
#        338120
#
# Disc length: 4698 seconds
#
# Revision: 1
# Processed by: cddbd v1.5.2PL0 Copyright (c) Steve Scherf et al.
# Submitted via: ExactAudioCopyFreeDBPlugin 1.0
#
DISCID=23125814
DTITLE=Various Artist - Bluesfest 2012 [CD2)
DYEAR=2012
DGENRE=
TTITLE0=Earth, Wind and Fire With The Emotions - Boogie Wonderland
TTITLE1=Yes - Owner Of A Lonely Heart
TTITLE2=Candi Station - Young Hearts Run Free
TTITLE3=Eagle And The Worm - Too Young
TTITLE4=Donovan - Mellow Yellow
TTITLE5=Josh Pyke - No One Wants A Lover
TTITLE6=Slightly Stoopid - Closer TO The Sun
TTITLE7=Trombone Shorty - Dumaine St
TTITLE8=Eugene 'Hideaway' Bridges - I Can Never Forget
TTITLE9=James Vincent McMorrow - If I Had A Boat
TTITLE10=Great Big Sea - Good People
TTITLE11=Dan Hannaford - Deeper Water
TTITLE12=Dawes - When My Time Comes
TTITLE13=Claude Hay - Get Me Some
TTITLE14=The Hands - More And More And More
TTITLE15=Bobby Alu - One To Wait
TTITLE16=Blue King Brown - Say Peace
TTITLE17=Dubmarine - Point The Bone
TTITLE18=1814 - Jah Rastafari
TTITLE19=Blackbirds - Want You Bad
EXTD=
EXTT0=
EXTT1=
EXTT2=
EXTT3=
EXTT4=
EXTT5=
EXTT6=
EXTT7=
EXTT8=
EXTT9=
EXTT10=
EXTT11=
EXTT12=
EXTT13=
EXTT14=
EXTT15=
EXTT16=
EXTT17=
EXTT18=
EXTT19=
PLAYORDER=
